<?xml version="1.0" encoding="utf-8"?>
<!-- Generator: Adobe Illustrator 26.1.0, SVG Export Plug-In . SVG Version: 6.00 Build 0)  -->
<svg version="1.1" xmlns="http://www.w3.org/2000/svg" xmlns:xlink="http://www.w3.org/1999/xlink" x="0px" y="0px"
	 viewBox="0 0 750 1000" style="enable-background:new 0 0 750 1000;" xml:space="preserve">
<style type="text/css">
	.st0{display:none;}
	.st1{display:inline;fill:#2E473B;}
	.st2{fill:#F1EFC1;}
</style>
<g id="Layer_2" class="st0">
	<rect x="126" y="251" class="st1" width="500" height="500"/>
</g>
<g id="Layer_1">
	<g>
		<path class="st2" d="M466.82,29.81c-150.85,85.28-321.35,231.05-362.54,405.94c-6.89,30.86-3.57,62.28,25.92,79.72
			c45.13,26.77,130.54,19.02,182.72,16.22c62.28-4.02,124.63-10.73,187.16-7.99c44.95,2.69,99.49,9.26,128.55,47.83
			c9.42,12.78,14.56,28.31,16.26,43.98c0.92,7.03,0.78,16.38,1.07,23.47c0.98,39.01,1.1,78.06-0.48,117.07
			c-1.32,31.19-3.57,62.42-8.98,93.19c-2.51,13.41-5.34,26.95-10.96,39.45c-0.86,1.77-1.72,3.51-2.97,5.11l-0.37-0.33
			c1.15-1.49,2.03-3.27,2.86-5.01c5.52-12.48,8.24-25.99,10.66-39.36c5.22-30.75,7.26-61.96,8.38-93.11
			c1.33-38.97,0.97-77.98-0.26-116.95c-0.3-15.33-0.88-31.32-6.39-45.76c-28.61-79.5-162.22-67.63-230.89-64.4
			c-46.7,2.95-93.35,7.72-140.14,9.74c-43.32,1.28-100.56,3.37-138.85-18.77c-22.58-13.16-32.75-35.87-31.7-61.56
			c0.24-8.01,1.34-15.93,2.98-23.68c7-30.76,17.89-60.4,31.67-88.64C196.3,213.83,318.19,110.1,442.31,33.96
			c6.75-4.03,13.47-7.96,20.47-11.77C462.78,22.19,466.82,29.81,466.82,29.81L466.82,29.81z"/>
	</g>
	<g>
		<path class="st2" d="M661.52,861.14c-22.72-57.29-58.86,109.79-61.78,123.91c0,0-0.48-0.13-0.48-0.13
			c4.36-12.52,8.27-25.2,11.84-37.97c5.42-20.28,25.12-91.5,2.66-103.1c-2.72-1.29-5.88-1.52-8.98-1.13c0,0-0.33-2.79-0.33-2.79
			c7.48-1.03,14.5,2.2,17.87,9.09c11.17,22.77-3.32,73.89-10.18,98.22c-17.27,55.84-15.2,45.14-3.72-3.21
			c5.04-20.36,10.53-40.66,17.73-60.38c3.72-9.83,7.63-19.77,13.66-28.48c4.53-6.62,11.85-12,18.34-4.17
			c2.39,2.83,3.95,6.08,5.34,9.34L661.52,861.14L661.52,861.14z"/>
	</g>
</g>
</svg>
