<?xml version="1.0" encoding="utf-8"?>
<!-- Generator: Adobe Illustrator 26.1.0, SVG Export Plug-In . SVG Version: 6.00 Build 0)  -->
<svg version="1.1" xmlns="http://www.w3.org/2000/svg" xmlns:xlink="http://www.w3.org/1999/xlink" x="0px" y="0px"
	 viewBox="0 0 750 1000" style="enable-background:new 0 0 750 1000;" xml:space="preserve">
<style type="text/css">
	.st0{display:none;}
	.st1{display:inline;fill:#2E473B;}
	.st2{fill:#F1EFC1;}
</style>
<g id="Layer_2" class="st0">
	<rect x="126" y="251" class="st1" width="500" height="500"/>
</g>
<g id="Layer_1">
	<g>
		<path class="st2" d="M300.11,35.09c86.81,43.15,168.49,97.2,240.82,161.84c68.45,62.13,130.27,137.2,156.4,227.36
			c20.77,69.75-20.76,97.33-84.51,105.29c-124.84,18.25-383.24-44.09-476.72,21.52c-20.09,13.92-31.88,36.05-33.49,60.34
			c-1.91,40.11-2.51,80.47-1.31,120.62c1.1,32.13,3.17,64.36,9.04,96.01c2.3,11.82,5.03,23.63,9.58,34.81
			c1.54,3.65,3.24,7.4,5.76,10.44c0,0-0.35,0.36-0.35,0.36c-21.97-30.91-25.29-125.88-26.17-165.73
			c-0.41-24.16-0.21-48.34,0.38-72.49c0.61-16-0.02-32.87,5.74-48.08c7.97-23.58,28.14-40.8,50.53-50.37
			c37.4-15.98,78.8-18.68,118.96-19.85c64.51-1.16,128.82,4.68,193.13,8.3c48.05,2.5,96.45,5.28,144.27-0.75
			c64.58-8.7,101.25-35.13,77.98-104.58c-37.98-117.48-131.89-206.68-229-278.13c-38.98-28.23-79.81-53.95-122-77.12
			c-14.01-7.66-28.29-15.17-42.68-21.99C296.47,42.91,300.11,35.09,300.11,35.09L300.11,35.09z"/>
	</g>
	<g>
		<path class="st2" d="M80.54,841.42c28.8-58.24,66.05,101.84,70.3,119.91c0,0-0.48,0.15-0.47,0.15
			c-4.99-12.04-9.5-24.26-13.64-36.62c-7.26-22.63-24.86-76.81-9.29-96.79c4.14-5.23,11.34-7.05,17.7-6.28c0,0-0.29,2.79-0.29,2.79
			c-3.09-0.35-6.22-0.21-9.06,0.77c-2.14,0.69-4.08,1.93-5.63,3.53c-11.5,12.27-5.65,42.68-2.57,58.03
			c5.54,25.39,13.76,50.19,23.23,74.38c0,0-0.47,0.15-0.47,0.15c-6.52-26.76-14.03-53.35-23.42-79.25
			c-2.37-6.46-4.89-12.87-7.65-19.16c-4.21-9.31-8.64-18.76-15.35-26.52c-9.42-10.77-16.43-5.23-21.48,5.8
			C82.46,842.33,80.54,841.42,80.54,841.42L80.54,841.42z"/>
	</g>
</g>
</svg>
